<?xml version="1.0" encoding="iso-8859-1"?>
<!-- Generator: Adobe Illustrator 24.0.1, SVG Export Plug-In . SVG Version: 6.00 Build 0)  -->
<svg version="1.1" id="&#x421;&#x43B;&#x43E;&#x439;_1"
     xmlns="http://www.w3.org/2000/svg" x="0px" y="0px" viewBox="0 0 3371.517 4000"
     style="enable-background:new 0 0 3371.517 4000;" xml:space="preserve">
<g>
	<rect style="fill:#FFF9F2;" width="3371.517" height="4000"/>
	<g>
		<g>
			<g>
				<path style="fill:#FFE5C4;" d="M1559.71,746.801c0,95.727-77.59,173.316-173.316,173.316c-49.719,0-94.536-20.938-126.118-54.48
					c124.297-23.459,224.435-112.463,260.429-228.357C1545.074,667.111,1559.71,705.275,1559.71,746.801z"/>
				<g>
					<path style="fill:#FFC070;" d="M1386.395,927.118c-99.427,0-180.319-80.891-180.319-180.319s80.891-180.319,180.319-180.319
						s180.319,80.891,180.319,180.319S1485.822,927.118,1386.395,927.118z M1386.395,580.486
						c-91.705,0-166.313,74.609-166.313,166.313s74.609,166.313,166.313,166.313s166.313-74.609,166.313-166.313
						S1478.1,580.486,1386.395,580.486z"/>
				</g>
				<g>
					<path style="fill:#FFC070;" d="M1386.395,740.402c-28.954,0-52.51-23.555-52.51-52.508c0-28.954,23.555-52.51,52.51-52.51
						c28.953,0,52.508,23.555,52.508,52.51C1438.903,716.847,1415.347,740.402,1386.395,740.402z M1386.395,649.39
						c-21.232,0-38.504,17.272-38.504,38.505c0,21.23,17.272,38.503,38.504,38.503c21.23,0,38.503-17.273,38.503-38.503
						C1424.897,666.662,1407.625,649.39,1386.395,649.39z"/>
				</g>
				<g>
					<path style="fill:#FFC070;" d="M1465.643,852.467c-3.867,0-7.003-3.135-7.003-7.003c0-39.838-32.41-72.247-72.246-72.247
						c-39.838,0-72.248,32.41-72.248,72.247c0,3.867-3.135,7.003-7.003,7.003c-3.867,0-7.003-3.135-7.003-7.003
						c0-47.56,38.693-86.253,86.253-86.253c47.559,0,86.251,38.692,86.251,86.253
						C1472.646,849.332,1469.51,852.467,1465.643,852.467z"/>
				</g>
			</g>
			<g>
				<path style="fill:#FFE5C4;" d="M1559.71,1231.533c0,95.727-77.59,173.316-173.316,173.316
					c-49.719,0-94.536-20.938-126.118-54.48c124.297-23.459,224.435-112.463,260.429-228.357
					C1545.074,1151.843,1559.71,1190.007,1559.71,1231.533z"/>
				<g>
					<path style="fill:#B994FF;" d="M1386.395,1432.86c-111.012,0-201.327-90.315-201.327-201.327
						c0-111.012,90.315-201.327,201.327-201.327c111.012,0,201.327,90.315,201.327,201.327
						C1587.722,1342.545,1497.407,1432.86,1386.395,1432.86z M1386.395,1044.212c-103.289,0-187.321,84.032-187.321,187.321
						c0,103.29,84.032,187.322,187.321,187.322s187.321-84.032,187.321-187.322
						C1573.716,1128.244,1489.684,1044.212,1386.395,1044.212z"/>
				</g>
				<g>
					<path style="fill:#FFFFFF;" d="M1386.395,1411.852c-99.427,0-180.319-80.891-180.319-180.319
						c0-99.427,80.891-180.319,180.319-180.319s180.319,80.891,180.319,180.319
						C1566.714,1330.96,1485.822,1411.852,1386.395,1411.852z M1386.395,1065.219c-91.705,0-166.313,74.609-166.313,166.313
						c0,91.705,74.609,166.313,166.313,166.313s166.313-74.609,166.313-166.313
						C1552.708,1139.828,1478.1,1065.219,1386.395,1065.219z"/>
				</g>

					<ellipse transform="matrix(0.7071 -0.7071 0.7071 0.7071 -423.1063 1323.783)" style="fill:#B994FF;" cx="1386.394" cy="1172.626" rx="49.019" ry="49.019"/>
				<path style="fill:#B994FF;" d="M1307.145,1320.342L1307.145,1320.342c0-38.326,31.069-69.395,69.395-69.395h19.709
					c38.326,0,69.395,31.069,69.395,69.395v0c0,5.443-4.412,9.855-9.855,9.855h-138.79
					C1311.557,1330.197,1307.145,1325.785,1307.145,1320.342z"/>
			</g>
			<g>
				<g>
					<circle style="fill:#FFFAF3;" cx="1386.394" cy="1716.265" r="229.338"/>
					<circle style="fill:#FFF8EE;" cx="1386.394" cy="1716.265" r="226.155"/>
					<circle style="fill:#FFF5E9;" cx="1386.394" cy="1716.265" r="222.972"/>
					<circle style="fill:#FFF3E3;" cx="1386.394" cy="1716.265" r="219.789"/>
					<circle style="fill:#FFF1DE;" cx="1386.394" cy="1716.265" r="216.606"/>
					<circle style="fill:#FFEFD9;" cx="1386.394" cy="1716.265" r="213.423"/>
					<circle style="fill:#FFECD4;" cx="1386.394" cy="1716.265" r="210.24"/>
					<circle style="fill:#FFEACF;" cx="1386.394" cy="1716.265" r="207.057"/>
					<circle style="fill:#FFE8CA;" cx="1386.394" cy="1716.265" r="203.874"/>
					<circle style="fill:#FFE6C4;" cx="1386.394" cy="1716.265" r="200.69"/>
					<circle style="fill:#FFE3BF;" cx="1386.394" cy="1716.265" r="197.507"/>
					<circle style="fill:#FFE1BA;" cx="1386.394" cy="1716.265" r="194.324"/>
				</g>

					<ellipse transform="matrix(0.7071 -0.7071 0.7071 0.7071 -807.5172 1483.0111)" style="fill:#FFA44F;" cx="1386.394" cy="1716.265" rx="173.316" ry="173.316"/>
				<path style="fill:#FF9240;" d="M1559.71,1716.265c0,95.727-77.59,173.316-173.316,173.316
					c-49.719,0-94.536-20.938-126.118-54.48c124.297-23.459,224.435-112.463,260.429-228.357
					C1545.074,1636.575,1559.71,1674.74,1559.71,1716.265z"/>

					<ellipse transform="matrix(0.7071 -0.7071 0.7071 0.7071 -765.8638 1465.7577)" style="fill:#FFFFFF;" cx="1386.394" cy="1657.358" rx="49.019" ry="49.019"/>
				<path style="fill:#FFFFFF;" d="M1307.145,1805.074L1307.145,1805.074c0-38.326,31.069-69.395,69.395-69.395h19.709
					c38.326,0,69.395,31.069,69.395,69.395v0c0,5.443-4.412,9.855-9.855,9.855h-138.79
					C1311.557,1814.929,1307.145,1810.517,1307.145,1805.074z"/>
			</g>
		</g>
		<g>
			<g>

					<ellipse transform="matrix(0.7071 -0.7071 0.7071 0.7071 -297.3657 775.6967)" style="fill:#FFC070;" cx="787.666" cy="746.801" rx="173.316" ry="173.316"/>
				<path style="fill:#FFAD4F;" d="M960.995,746.806c0,95.727-77.59,173.316-173.316,173.316c-49.719,0-94.536-20.938-126.118-54.48
					c124.297-23.459,224.435-112.463,260.429-228.357C946.36,667.116,960.995,705.281,960.995,746.806z"/>
				<g>
					<path style="fill:#FFFFFF;" d="M787.666,741.855c-25.494,0-46.234-20.74-46.234-46.234c0-25.492,20.74-46.232,46.234-46.232
						c25.492,0,46.232,20.74,46.232,46.232C833.898,721.116,813.159,741.855,787.666,741.855z M787.666,663.395
						c-17.77,0-32.228,14.457-32.228,32.227c0,17.77,14.458,32.228,32.228,32.228c17.77,0,32.227-14.458,32.227-32.228
						C819.893,677.852,805.436,663.395,787.666,663.395z"/>
				</g>
				<g>
					<path style="fill:#FFFFFF;" d="M855.985,838.462c-3.867,0-7.003-3.135-7.003-7.003c0-33.81-27.506-61.316-61.316-61.316
						c-33.81,0-61.316,27.506-61.316,61.316c0,3.867-3.135,7.003-7.003,7.003c-3.867,0-7.003-3.135-7.003-7.003
						c0-41.532,33.789-75.321,75.321-75.321c41.532,0,75.321,33.789,75.321,75.321C862.988,835.326,859.852,838.462,855.985,838.462
						z"/>
				</g>
			</g>
			<g>
				<circle style="fill:#FFAD4F;" cx="787.666" cy="1231.533" r="215.332"/>
				<circle style="fill:#FFFAF3;" cx="787.666" cy="1231.533" r="194.324"/>
				<circle style="fill:#B994FF;" cx="787.666" cy="1231.533" r="173.316"/>
				<path style="fill:#AE80FF;" d="M960.995,1231.538c0,95.727-77.59,173.316-173.316,173.316
					c-49.719,0-94.536-20.938-126.118-54.48c124.297-23.459,224.435-112.463,260.429-228.357
					C946.36,1151.849,960.995,1190.013,960.995,1231.538z"/>
				<g>
					<path style="fill:#FFFFFF;" d="M787.666,1226.587c-25.494,0-46.234-20.74-46.234-46.232c0-25.494,20.74-46.234,46.234-46.234
						c25.492,0,46.232,20.74,46.232,46.234C833.898,1205.847,813.159,1226.587,787.666,1226.587z M787.666,1148.127
						c-17.77,0-32.228,14.458-32.228,32.228c0,17.77,14.458,32.227,32.228,32.227c17.77,0,32.227-14.457,32.227-32.227
						C819.893,1162.585,805.436,1148.127,787.666,1148.127z"/>
				</g>
				<g>
					<path style="fill:#FFFFFF;" d="M855.985,1323.193c-3.867,0-7.003-3.135-7.003-7.003c0-33.81-27.506-61.316-61.316-61.316
						c-33.81,0-61.316,27.506-61.316,61.316c0,3.867-3.135,7.003-7.003,7.003c-3.867,0-7.003-3.135-7.003-7.003
						c0-41.532,33.789-75.321,75.321-75.321c41.532,0,75.321,33.789,75.321,75.321
						C862.988,1320.058,859.852,1323.193,855.985,1323.193z"/>
				</g>
			</g>
			<g>
				<g>
					<circle style="fill:#FFFAF3;" cx="787.666" cy="1716.265" r="229.338"/>
					<circle style="fill:#FFF8EE;" cx="787.666" cy="1716.265" r="226.155"/>
					<circle style="fill:#FFF5E9;" cx="787.666" cy="1716.265" r="222.972"/>
					<circle style="fill:#FFF3E3;" cx="787.666" cy="1716.265" r="219.789"/>
					<circle style="fill:#FFF1DE;" cx="787.666" cy="1716.265" r="216.606"/>
					<circle style="fill:#FFEFD9;" cx="787.666" cy="1716.265" r="213.423"/>
					<circle style="fill:#FFECD4;" cx="787.666" cy="1716.265" r="210.24"/>
					<circle style="fill:#FFEACF;" cx="787.666" cy="1716.265" r="207.057"/>
					<circle style="fill:#FFE8CA;" cx="787.666" cy="1716.265" r="203.874"/>
					<circle style="fill:#FFE6C4;" cx="787.666" cy="1716.265" r="200.69"/>
					<circle style="fill:#FFE3BF;" cx="787.666" cy="1716.265" r="197.507"/>
					<circle style="fill:#FFE1BA;" cx="787.666" cy="1716.265" r="194.324"/>
				</g>

					<ellipse transform="matrix(0.7071 -0.7071 0.7071 0.7071 -982.8806 1059.6462)" style="fill:#FFA44F;" cx="787.666" cy="1716.265" rx="173.316" ry="173.316"/>
				<path style="fill:#FF9240;" d="M960.982,1716.265c0,95.727-77.59,173.316-173.316,173.316
					c-49.719,0-94.536-20.938-126.118-54.48c124.297-23.459,224.435-112.463,260.429-228.357
					C946.346,1636.575,960.982,1674.74,960.982,1716.265z"/>
				<g>
					<path style="fill:#FFFFFF;" d="M787.666,1711.32c-25.494,0-46.234-20.74-46.234-46.234c0-25.492,20.74-46.232,46.234-46.232
						c25.492,0,46.232,20.74,46.232,46.232C833.898,1690.58,813.159,1711.32,787.666,1711.32z M787.666,1632.86
						c-17.77,0-32.228,14.457-32.228,32.227c0,17.77,14.458,32.228,32.228,32.228c17.77,0,32.227-14.458,32.227-32.228
						C819.893,1647.316,805.436,1632.86,787.666,1632.86z"/>
				</g>
				<g>
					<path style="fill:#FFFFFF;" d="M855.985,1807.927c-3.867,0-7.003-3.135-7.003-7.003c0-33.81-27.506-61.316-61.316-61.316
						c-33.81,0-61.316,27.506-61.316,61.316c0,3.867-3.135,7.003-7.003,7.003c-3.867,0-7.003-3.135-7.003-7.003
						c0-41.532,33.789-75.321,75.321-75.321c41.532,0,75.321,33.789,75.321,75.321
						C862.988,1804.791,859.852,1807.927,855.985,1807.927z"/>
				</g>
			</g>
		</g>
		<g>
			<g>

					<ellipse transform="matrix(0.7071 -0.7071 0.7071 0.7071 53.3612 1622.4264)" style="fill:#FFC070;" cx="1985.122" cy="746.801" rx="173.316" ry="173.316"/>
				<path style="fill:#FFAD4F;" d="M2158.452,746.806c0,95.727-77.59,173.316-173.316,173.316
					c-49.719,0-94.536-20.938-126.118-54.48c124.297-23.459,224.436-112.463,260.429-228.357
					C2143.816,667.116,2158.452,705.281,2158.452,746.806z"/>
				<g>
					<path style="fill:#FFFFFF;" d="M2032.025,834.415h-25.559c-3.488,0-6.314-2.826-6.314-6.314s2.826-6.314,6.314-6.314h25.559
						c1.269,0,2.301-1.033,2.301-2.299v-71.006c0-8.193,6.664-14.858,14.857-14.858h19.256l-79.659-66.065
						c-1.542-1.504-3.014-2.117-4.573-2.117c-1.222-0.106-2.982,0.598-4.053,1.689l-80.155,66.493h19.285
						c8.193,0,14.857,6.666,14.857,14.858v71.006c0,1.267,1.033,2.299,2.299,2.299h25.489c3.488,0,6.314,2.826,6.314,6.314
						s-2.826,6.314-6.314,6.314h-25.489c-8.23,0-14.927-6.697-14.927-14.927v-71.006c0-1.272-0.959-2.231-2.229-2.231h-21.639
						c-4.804,0-9.095-2.862-10.93-7.29c-1.824-4.407-0.826-9.432,2.542-12.802l82.369-68.32c2.978-3.07,7.589-5.007,12.513-5.026
						c4.784-0.143,9.622,1.908,13.139,5.423l81.427,67.531c3.818,3.778,4.823,8.82,2.994,13.236
						c-1.824,4.404-6.093,7.249-10.877,7.249h-21.637c-1.27,0-2.229,0.959-2.229,2.231v71.006
						C2046.954,827.719,2040.257,834.415,2032.025,834.415z"/>
				</g>
			</g>
			<g>
				<circle style="fill:#FFAD4F;" cx="1985.123" cy="1231.533" r="215.332"/>
				<circle style="fill:#FFFAF3;" cx="1985.123" cy="1231.533" r="194.324"/>
				<circle style="fill:#B994FF;" cx="1985.122" cy="1231.533" r="173.316"/>
				<path style="fill:#AE80FF;" d="M2158.452,1231.538c0,95.727-77.59,173.316-173.316,173.316
					c-49.719,0-94.536-20.938-126.118-54.48c124.297-23.459,224.436-112.463,260.429-228.357
					C2143.816,1151.849,2158.452,1190.013,2158.452,1231.538z"/>
				<g>
					<path style="fill:#FFFFFF;" d="M2032.025,1320.61h-25.559c-3.488,0-6.314-2.826-6.314-6.314s2.826-6.314,6.314-6.314h25.559
						c1.269,0,2.301-1,2.301-2.229v-71.077c0-8.193,6.664-14.857,14.857-14.857h19.257l-79.66-66.067
						c-1.542-1.503-3.014-2.115-4.573-2.115c-1.222,0.154-2.982,0.6-4.053,1.687l-80.158,66.495h19.288
						c8.193,0,14.857,6.664,14.857,14.857v71.077c0,1.229,1.033,2.229,2.299,2.229h25.489c3.488,0,6.314,2.826,6.314,6.314
						s-2.826,6.314-6.314,6.314h-25.489c-8.23,0-14.927-6.664-14.927-14.857v-71.077c0-1.25-0.98-2.229-2.229-2.229h-21.639
						c-4.804,0-9.094-2.862-10.928-7.292c-1.826-4.406-0.829-9.43,2.541-12.802l82.369-68.32c2.978-3.069,7.589-5.006,12.513-5.025
						c4.784,0.079,9.622,1.906,13.139,5.42l81.427,67.532c3.818,3.778,4.823,8.82,2.994,13.236
						c-1.824,4.406-6.093,7.251-10.877,7.251h-21.637c-1.25,0-2.229,0.979-2.229,2.229v71.077
						C2046.954,1313.946,2040.257,1320.61,2032.025,1320.61z"/>
				</g>
			</g>
			<g>
				<g>
					<circle style="fill:#FFFAF3;" cx="1985.123" cy="1716.265" r="229.338"/>
					<circle style="fill:#FFF8EE;" cx="1985.123" cy="1716.265" r="226.155"/>
					<circle style="fill:#FFF5E9;" cx="1985.123" cy="1716.265" r="222.972"/>
					<circle style="fill:#FFF3E3;" cx="1985.123" cy="1716.265" r="219.789"/>
					<circle style="fill:#FFF1DE;" cx="1985.123" cy="1716.265" r="216.606"/>
					<circle style="fill:#FFEFD9;" cx="1985.123" cy="1716.265" r="213.423"/>
					<circle style="fill:#FFECD4;" cx="1985.123" cy="1716.265" r="210.24"/>
					<circle style="fill:#FFEACF;" cx="1985.123" cy="1716.265" r="207.057"/>
					<circle style="fill:#FFE8CA;" cx="1985.123" cy="1716.265" r="203.874"/>
					<circle style="fill:#FFE6C4;" cx="1985.123" cy="1716.265" r="200.69"/>
					<circle style="fill:#FFE3BF;" cx="1985.123" cy="1716.265" r="197.507"/>
					<circle style="fill:#FFE1BA;" cx="1985.123" cy="1716.265" r="194.324"/>
				</g>

					<ellipse transform="matrix(0.7071 -0.7071 0.7071 0.7071 -632.1537 1906.3759)" style="fill:#FFA44F;" cx="1985.122" cy="1716.265" rx="173.316" ry="173.316"/>
				<path style="fill:#FF9240;" d="M2158.438,1716.265c0,95.727-77.59,173.316-173.316,173.316
					c-49.719,0-94.536-20.938-126.118-54.48c124.297-23.459,224.435-112.463,260.429-228.357
					C2143.803,1636.575,2158.438,1674.74,2158.438,1716.265z"/>
				<g>
					<path style="fill:#FFFFFF;" d="M2032.025,1806.667h-25.559c-3.488,0-6.314-2.826-6.314-6.314s2.826-6.314,6.314-6.314h25.559
						c1.291,0,2.301-0.98,2.301-2.229v-71.078c0-8.193,6.664-14.857,14.857-14.857h19.257l-79.66-66.067
						c-1.542-1.503-3.014-2.115-4.573-2.115c-1.222-0.062-2.982,0.598-4.053,1.687l-80.158,66.495h19.288
						c8.193,0,14.857,6.664,14.857,14.857v71.078c0,1.25,1.01,2.229,2.299,2.229h25.489c3.488,0,6.314,2.826,6.314,6.314
						s-2.826,6.314-6.314,6.314h-25.489c-8.23,0-14.927-6.664-14.927-14.857v-71.078c0-1.229-1-2.229-2.229-2.229h-21.639
						c-4.804,0-9.094-2.862-10.928-7.292c-1.826-4.406-0.829-9.43,2.541-12.802l82.369-68.32c2.978-3.069,7.589-5.006,12.513-5.025
						c4.784,0.089,9.622,1.906,13.139,5.42l81.427,67.532c3.818,3.778,4.823,8.82,2.994,13.236
						c-1.824,4.406-6.093,7.251-10.877,7.251h-21.637c-1.25,0-2.229,0.98-2.229,2.229v71.078
						C2046.954,1800.002,2040.257,1806.667,2032.025,1806.667z"/>
				</g>
			</g>
		</g>
		<g>
			<g>
				<path style="fill:#FFE5C4;" d="M2757.167,746.801c0,95.727-77.59,173.316-173.316,173.316
					c-49.719,0-94.536-20.938-126.118-54.48c124.297-23.459,224.436-112.463,260.429-228.357
					C2742.531,667.111,2757.167,705.275,2757.167,746.801z"/>
				<g>
					<path style="fill:#FFC070;" d="M2583.851,927.118c-99.427,0-180.319-80.891-180.319-180.319s80.891-180.319,180.319-180.319
						S2764.17,647.372,2764.17,746.8S2683.279,927.118,2583.851,927.118z M2583.851,580.486
						c-91.705,0-166.313,74.609-166.313,166.313s74.609,166.313,166.313,166.313s166.313-74.609,166.313-166.313
						S2675.556,580.486,2583.851,580.486z"/>
				</g>
				<g>
					<path style="fill:#FFC070;" d="M2633.2,840.03h-26.911c-3.867,0-7.003-3.135-7.003-7.003c0-3.867,3.135-7.003,7.003-7.003
						h26.911c1.067,0,1.968-0.935,1.968-2.041v-74.559c0-8.808,7.165-15.973,15.973-15.973h19.191l-82.852-68.709
						c-1.58-1.539-2.813-2.327-4.585-2.137c-1.508,0.007-2.918,0.597-3.968,1.662c-0.164,0.167-0.339,0.327-0.52,0.477
						l-82.875,68.707h19.288c8.767,0,15.9,7.165,15.9,15.973v74.559c0,1.125,0.917,2.041,2.041,2.041h26.838
						c3.867,0,7.003,3.135,7.003,7.003c0,3.867-3.135,7.003-7.003,7.003h-26.838c-8.847,0-16.047-7.199-16.047-16.047v-74.559
						c0-1.122-0.814-1.968-1.894-1.968h-22.793c-5.196,0-9.835-3.094-11.821-7.883c-1.975-4.766-0.896-10.203,2.749-13.85
						l86.268-71.559c3.659-3.571,8.478-5.544,13.617-5.565c5.302,0.197,10.301,2.04,14.062,5.803l85.475,70.883
						c4.141,4.1,5.226,9.553,3.248,14.33c-1.975,4.763-6.592,7.84-11.764,7.84h-22.721c-1.103,0-1.968,0.865-1.968,1.968v74.559
						C2649.173,832.83,2642.008,840.03,2633.2,840.03z"/>
				</g>
			</g>
			<g>
				<path style="fill:#FFE5C4;" d="M2757.167,1231.533c0,95.727-77.59,173.316-173.316,173.316
					c-49.719,0-94.536-20.938-126.118-54.48c124.297-23.459,224.436-112.463,260.429-228.357
					C2742.531,1151.843,2757.167,1190.007,2757.167,1231.533z"/>
				<g>
					<path style="fill:#B994FF;" d="M2583.851,1432.86c-111.012,0-201.327-90.315-201.327-201.327
						c0-111.012,90.315-201.327,201.327-201.327c111.012,0,201.327,90.315,201.327,201.327
						C2785.178,1342.545,2694.863,1432.86,2583.851,1432.86z M2583.851,1044.212c-103.289,0-187.322,84.032-187.322,187.321
						c0,103.29,84.032,187.322,187.322,187.322s187.322-84.032,187.322-187.322
						C2771.173,1128.244,2687.141,1044.212,2583.851,1044.212z"/>
				</g>
				<g>
					<path style="fill:#FFFFFF;" d="M2583.851,1411.852c-99.427,0-180.319-80.891-180.319-180.319
						c0-99.427,80.891-180.319,180.319-180.319s180.319,80.891,180.319,180.319
						C2764.17,1330.96,2683.279,1411.852,2583.851,1411.852z M2583.851,1065.219c-91.705,0-166.313,74.609-166.313,166.313
						c0,91.705,74.609,166.313,166.313,166.313s166.313-74.609,166.313-166.313
						C2750.165,1139.828,2675.556,1065.219,2583.851,1065.219z"/>
				</g>
				<g>
					<path style="fill:#B994FF;" d="M2673.861,1227.35h-22.72c-4.934,0-8.971,4.037-8.971,8.971v74.63
						c0,4.934-4.037,8.971-8.97,8.971h-12.445c-4.334,0-71.36,0-75.695,0h-12.298c-5,0-9.044-4.044-9.044-8.971v-74.631
						c0-4.934-4.037-8.971-8.971-8.971h-22.72c-5.146,0-7.721-6.176-4.118-9.779l86.028-71.322c4.927-5,13.014-5,18.014,0
						l85.955,71.322C2681.509,1221.174,2679.008,1227.35,2673.861,1227.35z"/>
				</g>
			</g>
			<g>
				<g>
					<circle style="fill:#FFFAF3;" cx="2583.851" cy="1716.265" r="229.338"/>
					<circle style="fill:#FFF8EE;" cx="2583.851" cy="1716.265" r="226.155"/>
					<circle style="fill:#FFF5E9;" cx="2583.851" cy="1716.265" r="222.972"/>
					<circle style="fill:#FFF3E3;" cx="2583.851" cy="1716.265" r="219.789"/>
					<circle style="fill:#FFF1DE;" cx="2583.851" cy="1716.265" r="216.606"/>
					<circle style="fill:#FFEFD9;" cx="2583.851" cy="1716.265" r="213.423"/>
					<circle style="fill:#FFECD4;" cx="2583.851" cy="1716.265" r="210.24"/>
					<circle style="fill:#FFEACF;" cx="2583.851" cy="1716.265" r="207.057"/>
					<circle style="fill:#FFE8CA;" cx="2583.851" cy="1716.265" r="203.874"/>
					<circle style="fill:#FFE6C4;" cx="2583.851" cy="1716.265" r="200.69"/>
					<circle style="fill:#FFE3BF;" cx="2583.851" cy="1716.265" r="197.507"/>
					<circle style="fill:#FFE1BA;" cx="2583.851" cy="1716.265" r="194.324"/>
				</g>

					<ellipse transform="matrix(0.7071 -0.7071 0.7071 0.7071 -456.7903 2329.7407)" style="fill:#FFA44F;" cx="2583.851" cy="1716.265" rx="173.316" ry="173.316"/>
				<path style="fill:#FF9240;" d="M2757.167,1716.265c0,95.727-77.59,173.316-173.316,173.316
					c-49.719,0-94.536-20.938-126.118-54.48c124.297-23.459,224.436-112.463,260.429-228.357
					C2742.531,1636.575,2757.167,1674.74,2757.167,1716.265z"/>
				<g>
					<path style="fill:#FFFFFF;" d="M2673.861,1712.635h-22.72c-4.934,0-8.971,4.037-8.971,8.971v74.63
						c0,4.934-4.037,8.971-8.97,8.971h-12.445c-4.334,0-71.36,0-75.695,0h-12.298c-5,0-9.044-4.044-9.044-8.971v-74.631
						c0-4.934-4.037-8.971-8.971-8.971h-22.72c-5.146,0-7.721-6.176-4.118-9.779l86.028-71.322c4.927-5,13.014-5,18.014,0
						l85.955,71.322C2681.509,1706.459,2679.008,1712.635,2673.861,1712.635z"/>
				</g>
			</g>
		</g>
		<g>
			<g>
				<circle style="fill:#FFC070;" cx="787.666" cy="2234.717" r="173.316"/>
				<path style="fill:#FFAD4F;" d="M960.995,2234.722c0,95.727-77.59,173.316-173.316,173.316
					c-49.719,0-94.536-20.938-126.118-54.48c124.297-23.459,224.435-112.463,260.429-228.357
					C946.36,2155.032,960.995,2193.197,960.995,2234.722z"/>
				<g>
					<g>
						<path style="fill:#FFFFFF;" d="M772.977,2289.061c-37.821,0-68.589-30.77-68.589-68.591s30.768-68.589,68.589-68.589
							c37.821,0,68.589,30.768,68.589,68.589S810.798,2289.061,772.977,2289.061z M772.977,2165.887
							c-30.098,0-54.583,24.485-54.583,54.583s24.485,54.585,54.583,54.585c30.098,0,54.584-24.487,54.584-54.585
							S803.076,2165.887,772.977,2165.887z"/>
					</g>
					<g>
						<path style="fill:#FFFFFF;" d="M876.949,2331.444c-1.792,0-3.585-0.684-4.951-2.052l-58.136-58.136
							c-2.735-2.734-2.735-7.169,0-9.902c2.732-2.735,7.17-2.735,9.902,0l58.136,58.136c2.735,2.734,2.735,7.168,0,9.902
							C880.534,2330.761,878.74,2331.444,876.949,2331.444z"/>
					</g>
				</g>
			</g>
			<g>
				<circle style="fill:#FFAD4F;" cx="787.666" cy="2719.449" r="215.332"/>
				<circle style="fill:#FFFAF3;" cx="787.666" cy="2719.449" r="194.324"/>

					<ellipse transform="matrix(0.7071 -0.7071 0.7071 0.7071 -1692.2388 1353.472)" style="fill:#B994FF;" cx="787.666" cy="2719.449" rx="173.316" ry="173.316"/>
				<path style="fill:#AE80FF;" d="M960.995,2719.454c0,95.727-77.59,173.316-173.316,173.316
					c-49.719,0-94.536-20.938-126.118-54.48c124.297-23.459,224.435-112.463,260.429-228.357
					C946.36,2639.765,960.995,2677.929,960.995,2719.454z"/>
				<g>
					<g>
						<path style="fill:#FFFFFF;" d="M772.977,2772.844c-37.821,0-68.589-30.77-68.589-68.591s30.768-68.589,68.589-68.589
							c37.821,0,68.589,30.768,68.589,68.589S810.798,2772.844,772.977,2772.844z M772.977,2649.669
							c-30.098,0-54.583,24.485-54.583,54.583s24.485,54.585,54.583,54.585c30.098,0,54.584-24.487,54.584-54.585
							S803.076,2649.669,772.977,2649.669z"/>
					</g>
					<g>
						<path style="fill:#FFFFFF;" d="M876.949,2815.227c-1.792,0-3.585-0.684-4.951-2.052l-58.136-58.136
							c-2.735-2.734-2.735-7.168,0-9.902c2.732-2.736,7.17-2.736,9.902,0l58.136,58.136c2.735,2.734,2.735,7.169,0,9.902
							C880.534,2814.543,878.74,2815.227,876.949,2815.227z"/>
					</g>
				</g>
			</g>
			<g>
				<g>
					<circle style="fill:#FFFAF3;" cx="787.666" cy="3204.181" r="229.338"/>
					<circle style="fill:#FFF8EE;" cx="787.666" cy="3204.181" r="226.155"/>
					<circle style="fill:#FFF5E9;" cx="787.666" cy="3204.181" r="222.972"/>
					<circle style="fill:#FFF3E3;" cx="787.666" cy="3204.181" r="219.789"/>
					<circle style="fill:#FFF1DE;" cx="787.666" cy="3204.181" r="216.606"/>
					<circle style="fill:#FFEFD9;" cx="787.666" cy="3204.181" r="213.423"/>
					<circle style="fill:#FFECD4;" cx="787.666" cy="3204.181" r="210.24"/>
					<circle style="fill:#FFEACF;" cx="787.666" cy="3204.181" r="207.057"/>
					<circle style="fill:#FFE8CA;" cx="787.666" cy="3204.181" r="203.874"/>
					<circle style="fill:#FFE6C4;" cx="787.666" cy="3204.181" r="200.69"/>
					<circle style="fill:#FFE3BF;" cx="787.666" cy="3204.181" r="197.507"/>
					<circle style="fill:#FFE1BA;" cx="787.666" cy="3204.181" r="194.324"/>
				</g>
				<circle style="fill:#FFA44F;" cx="787.666" cy="3204.181" r="173.316"/>
				<path style="fill:#FF9240;" d="M960.982,3204.181c0,95.727-77.59,173.316-173.316,173.316
					c-49.719,0-94.536-20.938-126.118-54.48c124.297-23.459,224.435-112.463,260.429-228.357
					C946.346,3124.491,960.982,3162.656,960.982,3204.181z"/>
				<g>
					<g>
						<path style="fill:#FFFFFF;" d="M772.977,3254.841c-37.821,0-68.589-30.77-68.589-68.591s30.768-68.589,68.589-68.589
							c37.821,0,68.589,30.768,68.589,68.589S810.798,3254.841,772.977,3254.841z M772.977,3131.667
							c-30.098,0-54.583,24.486-54.583,54.584c0,30.098,24.485,54.585,54.583,54.585c30.098,0,54.584-24.487,54.584-54.585
							C827.561,3156.153,803.076,3131.667,772.977,3131.667z"/>
					</g>
					<g>
						<path style="fill:#FFFFFF;" d="M876.949,3297.225c-1.792,0-3.585-0.684-4.951-2.052l-58.136-58.136
							c-2.735-2.734-2.735-7.168,0-9.902c2.732-2.735,7.17-2.735,9.902,0l58.136,58.136c2.735,2.734,2.735,7.169,0,9.902
							C880.534,3296.541,878.74,3297.225,876.949,3297.225z"/>
					</g>
				</g>
			</g>
		</g>
		<g>
			<g>
				<path style="fill:#FFE5C4;" d="M1559.71,2234.717c0,95.727-77.59,173.316-173.316,173.316
					c-49.719,0-94.536-20.938-126.118-54.48c124.297-23.459,224.435-112.463,260.429-228.357
					C1545.074,2155.027,1559.71,2193.191,1559.71,2234.717z"/>
				<g>
					<path style="fill:#FFC070;" d="M1386.395,2415.035c-99.427,0-180.319-80.891-180.319-180.319
						c0-99.427,80.891-180.319,180.319-180.319s180.319,80.891,180.319,180.319
						C1566.714,2334.144,1485.822,2415.035,1386.395,2415.035z M1386.395,2068.403c-91.705,0-166.313,74.608-166.313,166.313
						c0,91.705,74.609,166.313,166.313,166.313s166.313-74.608,166.313-166.313
						C1552.708,2143.012,1478.1,2068.403,1386.395,2068.403z"/>
				</g>
				<g>
					<g>
						<path style="fill:#FFC070;" d="M1375.149,2289.061c-37.821,0-68.589-30.77-68.589-68.591s30.768-68.589,68.589-68.589
							s68.591,30.768,68.591,68.589S1412.969,2289.061,1375.149,2289.061z M1375.149,2165.887
							c-30.098,0-54.584,24.485-54.584,54.583s24.485,54.585,54.584,54.585s54.585-24.487,54.585-54.585
							S1405.247,2165.887,1375.149,2165.887z"/>
					</g>
					<g>
						<path style="fill:#FFC070;" d="M1479.12,2331.444c-1.792,0-3.585-0.684-4.951-2.052l-58.136-58.136
							c-2.735-2.734-2.735-7.169,0-9.902c2.732-2.735,7.17-2.735,9.902,0l58.136,58.136c2.735,2.734,2.735,7.168,0,9.902
							C1482.705,2330.761,1480.912,2331.444,1479.12,2331.444z"/>
					</g>
				</g>
			</g>
			<g>
				<path style="fill:#FFE5C4;" d="M1559.71,2719.449c0,95.727-77.59,173.316-173.316,173.316
					c-49.719,0-94.536-20.938-126.118-54.48c124.297-23.459,224.435-112.463,260.429-228.357
					C1545.074,2639.759,1559.71,2677.924,1559.71,2719.449z"/>
				<g>
					<path style="fill:#B994FF;" d="M1386.395,2920.777c-111.012,0-201.327-90.315-201.327-201.327
						c0-111.012,90.315-201.327,201.327-201.327c111.012,0,201.327,90.315,201.327,201.327
						C1587.722,2830.462,1497.407,2920.777,1386.395,2920.777z M1386.395,2532.128c-103.289,0-187.321,84.032-187.321,187.321
						c0,103.29,84.032,187.322,187.321,187.322s187.321-84.032,187.321-187.322
						C1573.716,2616.16,1489.684,2532.128,1386.395,2532.128z"/>
				</g>
				<g>
					<path style="fill:#FFFFFF;" d="M1386.395,2899.767c-99.427,0-180.319-80.891-180.319-180.319
						c0-99.427,80.891-180.319,180.319-180.319s180.319,80.891,180.319,180.319
						C1566.714,2818.875,1485.822,2899.767,1386.395,2899.767z M1386.395,2553.135c-91.705,0-166.313,74.608-166.313,166.313
						c0,91.705,74.609,166.313,166.313,166.313s166.313-74.608,166.313-166.313
						C1552.708,2627.743,1478.1,2553.135,1386.395,2553.135z"/>
				</g>
				<g>
					<path style="fill:#B994FF;" d="M1489.608,2806.082c0,2.8-1.051,5.462-3.081,7.423c-1.961,1.959-4.622,3.081-7.423,3.081
						s-5.462-1.122-7.423-3.081l-48.897-48.899c-4.066-4.066-10.267-4.754-15.325-2.018c-11.077,5.993-23.964,8.963-37.724,7.926
						c-31.8-2.395-58.354-27.459-62.554-59.071c-5.576-41.963,27.044-77.909,67.934-77.909c37.884,0,68.626,30.743,68.626,68.556
						c0,11.687-2.926,22.705-8.132,32.343c-2.733,5.059-2.047,11.259,2.019,15.325l48.9,48.9
						C1488.558,2800.619,1489.608,2803.281,1489.608,2806.082z"/>
				</g>
			</g>
			<g>
				<g>
					<circle style="fill:#FFFAF3;" cx="1386.394" cy="3204.181" r="229.338"/>
					<circle style="fill:#FFF8EE;" cx="1386.394" cy="3204.181" r="226.155"/>
					<circle style="fill:#FFF5E9;" cx="1386.394" cy="3204.181" r="222.972"/>
					<circle style="fill:#FFF3E3;" cx="1386.394" cy="3204.181" r="219.789"/>
					<circle style="fill:#FFF1DE;" cx="1386.394" cy="3204.181" r="216.606"/>
					<circle style="fill:#FFEFD9;" cx="1386.394" cy="3204.181" r="213.423"/>
					<circle style="fill:#FFECD4;" cx="1386.394" cy="3204.181" r="210.24"/>
					<circle style="fill:#FFEACF;" cx="1386.394" cy="3204.181" r="207.057"/>
					<circle style="fill:#FFE8CA;" cx="1386.394" cy="3204.181" r="203.874"/>
					<circle style="fill:#FFE6C4;" cx="1386.394" cy="3204.181" r="200.69"/>
					<circle style="fill:#FFE3BF;" cx="1386.394" cy="3204.181" r="197.507"/>
					<circle style="fill:#FFE1BA;" cx="1386.394" cy="3204.181" r="194.324"/>
				</g>
				<circle style="fill:#FFA44F;" cx="1386.394" cy="3204.181" r="173.316"/>
				<path style="fill:#FF9240;" d="M1559.71,3204.181c0,95.727-77.59,173.316-173.316,173.316
					c-49.719,0-94.536-20.938-126.118-54.48c124.297-23.459,224.435-112.463,260.429-228.357
					C1545.074,3124.491,1559.71,3162.656,1559.71,3204.181z"/>
				<g>
					<path style="fill:#FFFFFF;" d="M1489.608,3289.43c0,2.801-1.051,5.462-3.081,7.423c-1.961,1.959-4.622,3.081-7.423,3.081
						s-5.462-1.122-7.423-3.081l-48.897-48.899c-4.066-4.066-10.267-4.754-15.325-2.018c-11.077,5.993-23.964,8.963-37.724,7.926
						c-31.8-2.395-58.354-27.459-62.554-59.071c-5.576-41.963,27.044-77.909,67.934-77.909c37.884,0,68.626,30.743,68.626,68.556
						c0,11.687-2.926,22.705-8.132,32.343c-2.733,5.059-2.047,11.259,2.019,15.325l48.9,48.9
						C1488.558,3283.968,1489.608,3286.63,1489.608,3289.43z"/>
				</g>
			</g>
		</g>
		<g>
			<g>
				<circle style="fill:#FFC070;" cx="1985.122" cy="2234.717" r="173.316"/>
				<path style="fill:#FFAD4F;" d="M2158.452,2234.722c0,95.727-77.59,173.316-173.316,173.316
					c-49.719,0-94.536-20.938-126.118-54.48c124.297-23.459,224.436-112.463,260.429-228.357
					C2143.816,2155.032,2158.452,2193.197,2158.452,2234.722z"/>
				<g>
					<g>
						<path style="fill:#FFFFFF;" d="M2079.327,2176.262h-188.409c-3.867,0-7.003-3.135-7.003-7.003s3.135-7.003,7.003-7.003
							h188.409c3.867,0,7.003,3.135,7.003,7.003S2083.195,2176.262,2079.327,2176.262z"/>
					</g>
					<g>
						<path style="fill:#FFFFFF;" d="M2079.327,2241.719h-188.409c-3.867,0-7.003-3.135-7.003-7.003
							c0-3.867,3.135-7.002,7.003-7.002h188.409c3.867,0,7.003,3.135,7.003,7.002
							C2086.33,2238.584,2083.195,2241.719,2079.327,2241.719z"/>
					</g>
					<g>
						<path style="fill:#FFFFFF;" d="M2079.327,2307.176h-188.409c-3.867,0-7.003-3.135-7.003-7.003s3.135-7.003,7.003-7.003
							h188.409c3.867,0,7.003,3.135,7.003,7.003S2083.195,2307.176,2079.327,2307.176z"/>
					</g>
				</g>
				<g>

						<ellipse transform="matrix(0.1602 -0.9871 0.9871 0.1602 -323.0865 3877.0276)" style="fill:#FFFFFF;" cx="2116.907" cy="2128.385" rx="77.38" ry="77.379"/>
					<circle style="fill:#FF707A;" cx="2116.906" cy="2128.385" r="63.024"/>
					<g>
						<path style="fill:#FFFFFF;" d="M2138.663,2143.748v10.467h-41.947v-8.326l21.409-20.22c2.272-2.166,3.806-4.03,4.599-5.59
							c0.792-1.558,1.189-3.105,1.189-4.638c0-2.221-0.753-3.926-2.26-5.115c-1.506-1.189-3.714-1.784-6.62-1.784
							c-2.432,0-4.627,0.464-6.582,1.388c-1.957,0.925-3.595,2.313-4.916,4.163l-9.357-6.026c2.167-3.224,5.154-5.749,8.96-7.573
							c3.806-1.824,8.167-2.735,13.083-2.735c4.123,0,7.731,0.673,10.823,2.022c3.093,1.348,5.497,3.251,7.216,5.709
							c1.717,2.458,2.577,5.352,2.577,8.682c0,3.013-0.635,5.842-1.903,8.485c-1.268,2.644-3.727,5.657-7.374,9.04l-12.766,12.052
							H2138.663z"/>
					</g>
				</g>
			</g>
			<g>
				<circle style="fill:#FFAD4F;" cx="1985.123" cy="2719.449" r="215.332"/>
				<circle style="fill:#FFFAF3;" cx="1985.123" cy="2719.449" r="194.324"/>

					<ellipse transform="matrix(0.7071 -0.7071 0.7071 0.7071 -1341.5118 2200.2017)" style="fill:#B994FF;" cx="1985.122" cy="2719.449" rx="173.316" ry="173.316"/>
				<path style="fill:#AE80FF;" d="M2158.452,2719.454c0,95.727-77.59,173.316-173.316,173.316
					c-49.719,0-94.536-20.938-126.118-54.48c124.297-23.459,224.436-112.463,260.429-228.357
					C2143.816,2639.765,2158.452,2677.929,2158.452,2719.454z"/>
				<g>
					<g>
						<path style="fill:#FFFFFF;" d="M2079.327,2660.996h-188.409c-3.867,0-7.003-3.135-7.003-7.003s3.135-7.003,7.003-7.003
							h188.409c3.867,0,7.003,3.135,7.003,7.003S2083.195,2660.996,2079.327,2660.996z"/>
					</g>
					<g>
						<path style="fill:#FFFFFF;" d="M2079.327,2726.451h-188.409c-3.867,0-7.003-3.135-7.003-7.002
							c0-3.867,3.135-7.003,7.003-7.003h188.409c3.867,0,7.003,3.135,7.003,7.003
							C2086.33,2723.315,2083.195,2726.451,2079.327,2726.451z"/>
					</g>
					<g>
						<path style="fill:#FFFFFF;" d="M2079.327,2791.908h-188.409c-3.867,0-7.003-3.135-7.003-7.003s3.135-7.003,7.003-7.003
							h188.409c3.867,0,7.003,3.135,7.003,7.003S2083.195,2791.908,2079.327,2791.908z"/>
					</g>
				</g>
				<g>

						<ellipse transform="matrix(0.1602 -0.9871 0.9871 0.1602 -797.6505 4280.7886)" style="fill:#FFFFFF;" cx="2116.907" cy="2609.157" rx="77.38" ry="77.379"/>
					<circle style="fill:#FF707A;" cx="2116.906" cy="2609.157" r="63.024"/>
					<g>
						<path style="fill:#FFFFFF;" d="M2138.663,2624.509v10.467h-41.947v-8.326l21.409-20.22c2.272-2.167,3.806-4.03,4.599-5.59
							c0.792-1.558,1.189-3.105,1.189-4.638c0-2.221-0.753-3.925-2.26-5.115c-1.506-1.189-3.714-1.784-6.62-1.784
							c-2.432,0-4.627,0.463-6.582,1.388c-1.957,0.925-3.595,2.313-4.916,4.163l-9.357-6.026c2.167-3.224,5.154-5.749,8.96-7.573
							s8.167-2.735,13.083-2.735c4.123,0,7.731,0.673,10.823,2.021c3.093,1.348,5.497,3.251,7.216,5.709
							c1.717,2.458,2.577,5.352,2.577,8.682c0,3.013-0.635,5.842-1.903,8.485c-1.268,2.644-3.727,5.657-7.374,9.04l-12.766,12.052
							H2138.663z"/>
					</g>
				</g>
			</g>
			<g>
				<g>
					<circle style="fill:#FFFAF3;" cx="1985.123" cy="3204.181" r="229.338"/>
					<circle style="fill:#FFF8EE;" cx="1985.123" cy="3204.181" r="226.155"/>
					<circle style="fill:#FFF5E9;" cx="1985.123" cy="3204.181" r="222.972"/>
					<circle style="fill:#FFF3E3;" cx="1985.123" cy="3204.181" r="219.789"/>
					<circle style="fill:#FFF1DE;" cx="1985.123" cy="3204.181" r="216.606"/>
					<circle style="fill:#FFEFD9;" cx="1985.123" cy="3204.181" r="213.423"/>
					<circle style="fill:#FFECD4;" cx="1985.123" cy="3204.181" r="210.24"/>
					<circle style="fill:#FFEACF;" cx="1985.123" cy="3204.181" r="207.057"/>
					<circle style="fill:#FFE8CA;" cx="1985.123" cy="3204.181" r="203.874"/>
					<circle style="fill:#FFE6C4;" cx="1985.123" cy="3204.181" r="200.69"/>
					<circle style="fill:#FFE3BF;" cx="1985.123" cy="3204.181" r="197.507"/>
					<circle style="fill:#FFE1BA;" cx="1985.123" cy="3204.181" r="194.324"/>
				</g>
				<circle style="fill:#FFA44F;" cx="1985.122" cy="3204.181" r="173.316"/>
				<path style="fill:#FF9240;" d="M2158.438,3204.181c0,95.727-77.59,173.316-173.316,173.316
					c-49.719,0-94.536-20.938-126.118-54.48c124.297-23.459,224.435-112.463,260.429-228.357
					C2143.803,3124.491,2158.438,3162.656,2158.438,3204.181z"/>
				<g>
					<g>
						<path style="fill:#FFFFFF;" d="M2079.327,3145.727h-188.409c-3.867,0-7.003-3.135-7.003-7.003
							c0-3.867,3.135-7.003,7.003-7.003h188.409c3.867,0,7.003,3.135,7.003,7.003
							C2086.33,3142.592,2083.195,3145.727,2079.327,3145.727z"/>
					</g>
					<g>
						<path style="fill:#FFFFFF;" d="M2079.327,3211.184h-188.409c-3.867,0-7.003-3.135-7.003-7.002
							c0-3.867,3.135-7.003,7.003-7.003h188.409c3.867,0,7.003,3.135,7.003,7.003
							C2086.33,3208.049,2083.195,3211.184,2079.327,3211.184z"/>
					</g>
					<g>
						<path style="fill:#FFFFFF;" d="M2079.327,3276.641h-188.409c-3.867,0-7.003-3.135-7.003-7.003s3.135-7.003,7.003-7.003
							h188.409c3.867,0,7.003,3.135,7.003,7.003S2083.195,3276.641,2079.327,3276.641z"/>
					</g>
				</g>
				<g>

						<ellipse transform="matrix(0.1602 -0.9871 0.9871 0.1602 -1283.0352 4693.7554)" style="fill:#FFFFFF;" cx="2116.907" cy="3100.891" rx="77.38" ry="77.379"/>
					<circle style="fill:#FF707A;" cx="2116.906" cy="3100.891" r="63.024"/>
					<g>
						<path style="fill:#FFFFFF;" d="M2138.663,3116.243v10.467h-41.947v-8.326l21.409-20.22c2.272-2.167,3.806-4.03,4.599-5.59
							c0.792-1.558,1.189-3.105,1.189-4.638c0-2.221-0.753-3.925-2.26-5.115c-1.506-1.189-3.714-1.784-6.62-1.784
							c-2.432,0-4.627,0.464-6.582,1.388c-1.957,0.925-3.595,2.313-4.916,4.163l-9.357-6.026c2.167-3.224,5.154-5.749,8.96-7.573
							c3.806-1.824,8.167-2.735,13.083-2.735c4.123,0,7.731,0.673,10.823,2.022c3.093,1.348,5.497,3.251,7.216,5.709
							c1.717,2.458,2.577,5.352,2.577,8.682c0,3.013-0.635,5.842-1.903,8.485c-1.268,2.644-3.727,5.657-7.374,9.04l-12.766,12.052
							H2138.663z"/>
					</g>
				</g>
			</g>
		</g>
		<g>
			<g>
				<path style="fill:#FFE5C4;" d="M2757.167,2234.717c0,95.727-77.59,173.316-173.316,173.316
					c-49.719,0-94.536-20.938-126.118-54.48c124.297-23.459,224.436-112.463,260.429-228.357
					C2742.531,2155.027,2757.167,2193.191,2757.167,2234.717z"/>
				<g>
					<path style="fill:#FFC070;" d="M2583.851,2415.035c-99.427,0-180.319-80.891-180.319-180.319
						c0-99.427,80.891-180.319,180.319-180.319s180.319,80.891,180.319,180.319
						C2764.17,2334.144,2683.279,2415.035,2583.851,2415.035z M2583.851,2068.403c-91.705,0-166.313,74.608-166.313,166.313
						c0,91.705,74.609,166.313,166.313,166.313s166.313-74.608,166.313-166.313
						C2750.165,2143.012,2675.556,2068.403,2583.851,2068.403z"/>
				</g>
				<g>
					<g>
						<path style="fill:#FFC070;" d="M2678.056,2176.262h-188.409c-3.867,0-7.003-3.135-7.003-7.003s3.135-7.003,7.003-7.003
							h188.409c3.867,0,7.003,3.135,7.003,7.003S2681.923,2176.262,2678.056,2176.262z"/>
					</g>
					<g>
						<path style="fill:#FFC070;" d="M2678.056,2241.719h-188.409c-3.867,0-7.003-3.135-7.003-7.003
							c0-3.867,3.135-7.002,7.003-7.002h188.409c3.867,0,7.003,3.135,7.003,7.002
							C2685.058,2238.584,2681.923,2241.719,2678.056,2241.719z"/>
					</g>
					<g>
						<path style="fill:#FFC070;" d="M2678.056,2307.176h-188.409c-3.867,0-7.003-3.135-7.003-7.003s3.135-7.003,7.003-7.003
							h188.409c3.867,0,7.003,3.135,7.003,7.003S2681.923,2307.176,2678.056,2307.176z"/>
					</g>
				</g>
				<g>
					<circle style="fill:#FFFFFF;" cx="2731.557" cy="2128.385" r="77.38"/>
					<circle style="fill:#FF707A;" cx="2731.557" cy="2128.385" r="63.024"/>
					<g>
						<path style="fill:#FFFFFF;" d="M2753.323,2143.748v10.467h-41.946v-8.326l21.409-20.22c2.272-2.166,3.806-4.03,4.599-5.59
							c0.792-1.558,1.189-3.105,1.189-4.638c0-2.221-0.753-3.926-2.26-5.115c-1.506-1.189-3.714-1.784-6.62-1.784
							c-2.432,0-4.627,0.464-6.582,1.388c-1.957,0.925-3.595,2.313-4.916,4.163l-9.357-6.026c2.167-3.224,5.155-5.749,8.961-7.573
							c3.806-1.824,8.167-2.735,13.083-2.735c4.123,0,7.731,0.673,10.823,2.022c3.093,1.348,5.497,3.251,7.216,5.709
							c1.717,2.458,2.577,5.352,2.577,8.682c0,3.013-0.635,5.842-1.903,8.485c-1.268,2.644-3.727,5.657-7.375,9.04l-12.766,12.052
							H2753.323z"/>
					</g>
				</g>
			</g>
			<g>
				<path style="fill:#FFE5C4;" d="M2757.167,2719.449c0,95.727-77.59,173.316-173.316,173.316
					c-49.719,0-94.536-20.938-126.118-54.48c124.297-23.459,224.436-112.463,260.429-228.357
					C2742.531,2639.759,2757.167,2677.924,2757.167,2719.449z"/>
				<g>
					<path style="fill:#B994FF;" d="M2583.851,2920.777c-111.012,0-201.327-90.315-201.327-201.327
						c0-111.012,90.315-201.327,201.327-201.327c111.012,0,201.327,90.315,201.327,201.327
						C2785.178,2830.462,2694.863,2920.777,2583.851,2920.777z M2583.851,2532.128c-103.289,0-187.322,84.032-187.322,187.321
						c0,103.29,84.032,187.322,187.322,187.322s187.322-84.032,187.322-187.322
						C2771.173,2616.16,2687.141,2532.128,2583.851,2532.128z"/>
				</g>
				<g>
					<path style="fill:#FFFFFF;" d="M2583.851,2899.767c-99.427,0-180.319-80.891-180.319-180.319
						c0-99.427,80.891-180.319,180.319-180.319s180.319,80.891,180.319,180.319
						C2764.17,2818.875,2683.279,2899.767,2583.851,2899.767z M2583.851,2553.135c-91.705,0-166.313,74.608-166.313,166.313
						c0,91.705,74.609,166.313,166.313,166.313s166.313-74.608,166.313-166.313
						C2750.165,2627.743,2675.556,2553.135,2583.851,2553.135z"/>
				</g>
				<g>
					<path style="fill:#B994FF;" d="M2665.625,2812.149h-163.549c-12.768,0-23.119-10.351-23.119-23.118v-132.088
						c0-12.768,10.351-23.118,23.119-23.118h163.549c12.768,0,23.118,10.35,23.118,23.118v132.088
						C2688.744,2801.799,2678.394,2812.149,2665.625,2812.149z"/>
					<g>
						<g>
							<path style="fill:#FFFFFF;" d="M2665.244,2675.507h-162.785c-5.013,0-9.075-4.062-9.075-9.075s4.062-9.075,9.075-9.075
								h162.785c5.013,0,9.075,4.062,9.075,9.075S2670.256,2675.507,2665.244,2675.507z"/>
						</g>
						<g>
							<path style="fill:#FFFFFF;" d="M2665.244,2732.062h-162.785c-5.013,0-9.075-4.062-9.075-9.075s4.062-9.075,9.075-9.075
								h162.785c5.013,0,9.075,4.062,9.075,9.075S2670.256,2732.062,2665.244,2732.062z"/>
						</g>
						<g>
							<path style="fill:#FFFFFF;" d="M2665.244,2788.616h-162.785c-5.013,0-9.075-4.062-9.075-9.074
								c0-5.013,4.062-9.075,9.075-9.075h162.785c5.013,0,9.075,4.062,9.075,9.075
								C2674.318,2784.554,2670.256,2788.616,2665.244,2788.616z"/>
						</g>
					</g>
				</g>
				<g>
					<circle style="fill:#FFFFFF;" cx="2731.557" cy="2609.157" r="77.38"/>
					<circle style="fill:#FF707A;" cx="2731.557" cy="2609.157" r="63.024"/>
					<g>
						<path style="fill:#FFFFFF;" d="M2753.323,2624.509v10.467h-41.946v-8.326l21.409-20.22c2.272-2.167,3.806-4.03,4.599-5.59
							c0.792-1.558,1.189-3.105,1.189-4.638c0-2.221-0.753-3.925-2.26-5.115c-1.506-1.189-3.714-1.784-6.62-1.784
							c-2.432,0-4.627,0.463-6.582,1.388c-1.957,0.925-3.595,2.313-4.916,4.163l-9.357-6.026c2.167-3.224,5.155-5.749,8.961-7.573
							s8.167-2.735,13.083-2.735c4.123,0,7.731,0.673,10.823,2.021c3.093,1.348,5.497,3.251,7.216,5.709
							c1.717,2.458,2.577,5.352,2.577,8.682c0,3.013-0.635,5.842-1.903,8.485c-1.268,2.644-3.727,5.657-7.375,9.04l-12.766,12.052
							H2753.323z"/>
					</g>
				</g>
			</g>
			<g>
				<g>
					<circle style="fill:#FFFAF3;" cx="2583.851" cy="3204.181" r="229.338"/>
					<circle style="fill:#FFF8EE;" cx="2583.851" cy="3204.181" r="226.155"/>
					<circle style="fill:#FFF5E9;" cx="2583.851" cy="3204.181" r="222.972"/>
					<circle style="fill:#FFF3E3;" cx="2583.851" cy="3204.181" r="219.789"/>
					<circle style="fill:#FFF1DE;" cx="2583.851" cy="3204.181" r="216.606"/>
					<circle style="fill:#FFEFD9;" cx="2583.851" cy="3204.181" r="213.423"/>
					<circle style="fill:#FFECD4;" cx="2583.851" cy="3204.181" r="210.24"/>
					<circle style="fill:#FFEACF;" cx="2583.851" cy="3204.181" r="207.057"/>
					<circle style="fill:#FFE8CA;" cx="2583.851" cy="3204.181" r="203.874"/>
					<circle style="fill:#FFE6C4;" cx="2583.851" cy="3204.181" r="200.69"/>
					<circle style="fill:#FFE3BF;" cx="2583.851" cy="3204.181" r="197.507"/>
					<circle style="fill:#FFE1BA;" cx="2583.851" cy="3204.181" r="194.324"/>
				</g>
				<circle style="fill:#FFA44F;" cx="2583.851" cy="3204.181" r="173.316"/>
				<path style="fill:#FF9240;" d="M2757.167,3204.181c0,95.727-77.59,173.316-173.316,173.316
					c-49.719,0-94.536-20.938-126.118-54.48c124.297-23.459,224.436-112.463,260.429-228.357
					C2742.531,3124.491,2757.167,3162.656,2757.167,3204.181z"/>
				<g>
					<path style="fill:#FFFFFF;" d="M2665.625,3293.344h-163.549c-12.768,0-23.119-10.351-23.119-23.119v-132.088
						c0-12.768,10.351-23.119,23.119-23.119h163.549c12.768,0,23.118,10.351,23.118,23.119v132.088
						C2688.744,3282.993,2678.394,3293.344,2665.625,3293.344z"/>
					<g>
						<g>
							<path style="fill:#FFA44F;" d="M2665.244,3156.701h-162.785c-5.013,0-9.075-4.062-9.075-9.075s4.062-9.075,9.075-9.075
								h162.785c5.013,0,9.075,4.062,9.075,9.075S2670.256,3156.701,2665.244,3156.701z"/>
						</g>
						<g>
							<path style="fill:#FFA44F;" d="M2665.244,3213.256h-162.785c-5.013,0-9.075-4.062-9.075-9.075s4.062-9.075,9.075-9.075
								h162.785c5.013,0,9.075,4.062,9.075,9.075S2670.256,3213.256,2665.244,3213.256z"/>
						</g>
						<g>
							<path style="fill:#FFA44F;" d="M2665.244,3269.811h-162.785c-5.013,0-9.075-4.062-9.075-9.075s4.062-9.075,9.075-9.075
								h162.785c5.013,0,9.075,4.062,9.075,9.075S2670.256,3269.811,2665.244,3269.811z"/>
						</g>
					</g>
				</g>
				<g>
					<circle style="fill:#FFFFFF;" cx="2731.557" cy="3100.891" r="77.38"/>
					<circle style="fill:#FF707A;" cx="2731.557" cy="3100.891" r="63.024"/>
					<g>
						<path style="fill:#FFFFFF;" d="M2753.323,3116.243v10.467h-41.946v-8.326l21.409-20.22c2.272-2.167,3.806-4.03,4.599-5.59
							c0.792-1.558,1.189-3.105,1.189-4.638c0-2.221-0.753-3.925-2.26-5.115c-1.506-1.189-3.714-1.784-6.62-1.784
							c-2.432,0-4.627,0.464-6.582,1.388c-1.957,0.925-3.595,2.313-4.916,4.163l-9.357-6.026c2.167-3.224,5.155-5.749,8.961-7.573
							c3.806-1.824,8.167-2.735,13.083-2.735c4.123,0,7.731,0.673,10.823,2.022c3.093,1.348,5.497,3.251,7.216,5.709
							c1.717,2.458,2.577,5.352,2.577,8.682c0,3.013-0.635,5.842-1.903,8.485c-1.268,2.644-3.727,5.657-7.375,9.04l-12.766,12.052
							H2753.323z"/>
					</g>
				</g>
			</g>
		</g>
	</g>
</g>
</svg>
